<svg xmlns="http://www.w3.org/2000/svg" viewBox="0 0 512 512">
  <defs>
    <radialGradient id="g3" cx="35%" cy="30%" r="70%">
      <stop offset="0%" style="stop-color:#2ecc71"/>
      <stop offset="100%" style="stop-color:#16a34a"/>
    </radialGradient>
  </defs>
  <circle cx="256" cy="256" r="256" fill="url(#g3)"/>
  <!-- Flèche haut : arc blanc épais, 160° -->
  <path d="M 144 160 A 148 148 0 0 1 368 160"
        fill="none" stroke="white" stroke-width="38" stroke-linecap="round"
        opacity="0.95"/>
  <!-- Pointe flèche haut -->
  <polygon points="368,160 350,108 404,128" fill="white" opacity="0.95"/>
  <!-- Flèche bas : arc blanc semi-transparent, 160° -->
  <path d="M 368 352 A 148 148 0 0 1 144 352"
        fill="none" stroke="rgba(255,255,255,0.6)" stroke-width="38" stroke-linecap="round"/>
  <!-- Pointe flèche bas -->
  <polygon points="144,352 162,404 108,384" fill="rgba(255,255,255,0.6)"/>
  <!-- Smartphone centré, design épuré -->
  <rect x="206" y="175" width="100" height="162" rx="16" fill="white"/>
  <rect x="216" y="188" width="80" height="122" rx="8" fill="#16a34a"/>
  <!-- Bouton home rond -->
  <circle cx="256" cy="324" r="9" fill="#e8e8e8"/>
  <!-- Encoche haut -->
  <rect x="236" y="179" width="40" height="6" rx="3" fill="#e0e0e0"/>
  <!-- Flèches sur écran -->
  <path d="M232 228 Q256 218 280 228" fill="none" stroke="white" stroke-width="5" stroke-linecap="round"/>
  <polygon points="280,228 268,214 284,218" fill="white"/>
  <path d="M280 272 Q256 282 232 272" fill="none" stroke="rgba(255,255,255,0.7)" stroke-width="5" stroke-linecap="round"/>
  <polygon points="232,272 244,286 228,282" fill="rgba(255,255,255,0.7)"/>
</svg>